# xmcd
#
# Track frame offsets:
#	150
#	18370
#	45557
#	63185
#	80062
#	100845
#	124125
#	140662
#	158185
#	178175
#	197060
#	212980
#	229035
#	248680
#	264720
#	282280
#	304635
#
# Disc length: 4212
#
# Revision: 3
# Processed by: cddbd v1.5.1PL0 Copyright (c) Steve Scherf et al.
# Submitted via: Kscd 1.3.3
# Normalized: r1:DSETVAR1,TDELIM( - ),TSWAP
#
DISCID=f3107211
DTITLE=Various Artist - meine CD
DYEAR=1900
DGENRE=
TTITLE0=hot chocolate - it started with a kiss
TTITLE1=10 CC - i'am not in love
TTITLE2=america - the border
TTITLE3=joe cocker - there goes my baby
TTITLE4=phil collins - in the air tonight
TTITLE5=supertramp - take the long way
TTITLE6=ELO - confusion
TTITLE7=nazareth - love hurts
TTITLE8=jethro tull - locomotin breath
TTITLE9=supertramp - the locical song
TTITLE10=ELO - lovin' thing
TTITLE11=america - ventura highway
TTITLE12=eric clapton - knocking on heavens door
TTITLE13=phil collins - against all odds
TTITLE14=cicago - if you leave me now
TTITLE15=eric clapton - let it grow
TTITLE16=amrica - i need you
EXTD=
EXTT0=
EXTT1=
EXTT2=
EXTT3=
EXTT4=
EXTT5=supertramp
EXTT6=
EXTT7=
EXTT8=
EXTT9=
EXTT10=
EXTT11=
EXTT12=
EXTT13=
EXTT14=
EXTT15=
EXTT16=
PLAYORDER=
